# xmcd
#
# Track frame offsets: 
#        150
#        13375
#        27077
#        41122
#        54292
#        66937
#        78752
#        93302
#        105367
#        117435
#        130270
#        141932
#        155145
#        168870
#        179640
#        189790
#        202532
#        215080
#        228562
#        244060
#        255707
#        274365
#        290445
#        302280
#
# Disc length: 4206 seconds
#
# Revision: 4
# Processed by: cddbd v1.5.2PL0 Copyright (c) Steve Scherf et al.
# Submitted via: ExactAudioCopyFreeDBPlugin 1.0
#
DISCID=51106c18
DTITLE=The Mills Brothers - The Anthology 1931-1968
DYEAR=1995
DGENRE=Rhythm and Blues
TTITLE0=Someday (You'll Want Me to Want You)
TTITLE1=If I Had My Way
TTITLE2=When You Were Sweet Sixteen
TTITLE3=Daddy's Little Girl
TTITLE4=Nevertheless
TTITLE5=Please Don't Talk About Me When I'm Gone
TTITLE6=Be My Life's Companion
TTITLE7=The Glow Worm
TTITLE8=A Shoulder to Weep On
TTITLE9=Say Si Si
TTITLE10=Pretty Butterfly
TTITLE11=The Jones Boy
TTITLE12=She Was Five and He Was Ten
TTITLE13=You're Nobody Till Somebody Loves You
TTITLE14=Opus One
TTITLE15=Smack Dab in the Middle
TTITLE16=Standing on the Corner
TTITLE17=Queen of the Senior Prom
TTITLE18=When I Lost You
TTITLE19=Yellow Bird
TTITLE20=April in Paris
TTITLE21=Blue and Sentimental
TTITLE22=My Shy Violet
TTITLE23=Cab Driver
EXTD=
EXTT0=
EXTT1=
EXTT2=
EXTT3=
EXTT4=
EXTT5=
EXTT6=
EXTT7=
EXTT8=
EXTT9=
EXTT10=
EXTT11=
EXTT12=
EXTT13=
EXTT14=
EXTT15=
EXTT16=
EXTT17=
EXTT18=
EXTT19=
EXTT20=
EXTT21=
EXTT22=
EXTT23=
PLAYORDER=
